# xmcd
#
# Track frame offsets: 
#        150
#        18624
#        35423
#
# Disc length: 765 seconds
#
# Revision: 5
# Processed by: cddbd v1.5.2PL0 Copyright (c) Steve Scherf et al.
# Submitted via: ExactAudioCopyFreeDBPlugin 1.0
#
DISCID=1d02fb03
DTITLE=田丸貴子 - ハーレムエース BIG BONUS MUSIC
DYEAR=2007
DGENRE=Game
TTITLE0=風のむこうへ
TTITLE1=Clock Trick -hyphosis-
TTITLE2=ちぎれたツバサで
EXTD=rlokker@worldonline.nl YEAR: 2007
EXTT0=
EXTT1=
EXTT2=
PLAYORDER=
